<svg width="24" height="24" viewBox="0 0 24 24" fill="none" xmlns="http://www.w3.org/2000/svg">
<path fill-rule="evenodd" clip-rule="evenodd" d="M19 13H5V20C5 21.6569 8.13401 23 12 23C15.866 23 19 21.6569 19 20V13Z" fill="url(#paint0_linear_88_70)"/>
<ellipse cx="12" cy="13" rx="7" ry="3" fill="url(#paint1_linear_88_70)"/>
<path fill-rule="evenodd" clip-rule="evenodd" d="M5 10H4V20C4 22.2091 7.58172 24 12 24C16.4183 24 20 22.2091 20 20V10H19V20C19 20.5217 18.5511 21.2633 17.2096 21.934C15.928 22.5748 14.0876 23 12 23C9.91244 23 8.07196 22.5748 6.79036 21.934C5.44895 21.2633 5 20.5217 5 20V10ZM8 14H7V19H8V14Z" fill="url(#paint2_linear_88_70)"/>
<path fill-rule="evenodd" clip-rule="evenodd" d="M12 12C16.9706 12 21 10.2091 21 8V5H17.9531C16.3666 4.37764 14.2825 4 12 4C9.71749 4 7.63344 4.37764 6.0469 5H3V8C3 10.2091 7.02944 12 12 12Z" fill="url(#paint3_radial_88_70)"/>
<ellipse cx="12" cy="4" rx="10" ry="4" fill="url(#paint4_linear_88_70)"/>
<path fill-rule="evenodd" clip-rule="evenodd" d="M21 4C21 4.18872 20.9085 4.46968 20.527 4.83043C20.1435 5.19317 19.5348 5.56591 18.6997 5.89995C17.035 6.56581 14.6668 7 12 7C9.33323 7 6.96497 6.56581 5.30032 5.89995C4.46523 5.56591 3.85653 5.19317 3.47296 4.83043C3.0915 4.46968 3 4.18872 3 4C3 3.81128 3.0915 3.53032 3.47296 3.16957C3.85653 2.80683 4.46523 2.43409 5.30032 2.10005C6.96497 1.43419 9.33323 1 12 1C14.6668 1 17.035 1.43419 18.6997 2.10005C19.5348 2.43409 20.1435 2.80683 20.527 3.16957C20.9085 3.53032 21 3.81128 21 4ZM22 4V8C22 10.2091 17.5228 12 12 12C6.47715 12 2 10.2091 2 8V4C2 1.79086 6.47715 0 12 0C17.5228 0 22 1.79086 22 4ZM21 5.74565C19.3793 7.08012 15.9582 8 12 8C8.0418 8 4.62072 7.08012 3 5.74565V8C3 8.18872 3.0915 8.46968 3.47296 8.83043C3.85653 9.19317 4.46523 9.56591 5.30032 9.89995C6.96497 10.5658 9.33323 11 12 11C14.6668 11 17.035 10.5658 18.6997 9.89995C19.5348 9.56591 20.1435 9.19317 20.527 8.83043C20.9085 8.46968 21 8.18872 21 8V5.74565Z" fill="#3C5956"/>
<defs>
<linearGradient id="paint0_linear_88_70" x1="12" y1="13" x2="12" y2="23" gradientUnits="userSpaceOnUse">
<stop stop-color="#8E478C"/>
<stop offset="1" stop-color="#39314B"/>
</linearGradient>
<linearGradient id="paint1_linear_88_70" x1="12" y1="10" x2="12" y2="16" gradientUnits="userSpaceOnUse">
<stop stop-color="#CD6093"/>
<stop offset="0.0001" stop-color="#CD6093"/>
<stop offset="1" stop-color="#8E478C"/>
</linearGradient>
<linearGradient id="paint2_linear_88_70" x1="12" y1="10" x2="12" y2="24" gradientUnits="userSpaceOnUse">
<stop stop-color="#DFF6F5"/>
<stop offset="1" stop-color="#28CCDF"/>
</linearGradient>
<radialGradient id="paint3_radial_88_70" cx="0" cy="0" r="1" gradientUnits="userSpaceOnUse" gradientTransform="translate(12 11) rotate(-29.0546) scale(10.2956 23.1652)">
<stop stop-color="#71AA34"/>
<stop offset="1" stop-color="#397B44"/>
</radialGradient>
<linearGradient id="paint4_linear_88_70" x1="12" y1="0" x2="12" y2="8" gradientUnits="userSpaceOnUse">
<stop stop-color="#71AA34"/>
<stop offset="1" stop-color="#397B44"/>
</linearGradient>
</defs>
</svg>
